<svg xmlns="http://www.w3.org/2000/svg" viewBox="0 0 400 240" fill="none">
  <defs>
    <linearGradient id="bg" x1="0" y1="0" x2="400" y2="240">
      <stop offset="0%" stop-color="#1e293b"/>
      <stop offset="100%" stop-color="#0f172a"/>
    </linearGradient>
  </defs>
  <rect width="400" height="240" rx="16" fill="url(#bg)"/>
  <!-- Road -->
  <rect x="0" y="175" width="400" height="65" rx="0" fill="#334155"/>
  <rect x="30" y="203" width="50" height="4" rx="2" fill="#64748b"/>
  <rect x="120" y="203" width="50" height="4" rx="2" fill="#64748b"/>
  <rect x="210" y="203" width="50" height="4" rx="2" fill="#64748b"/>
  <rect x="300" y="203" width="50" height="4" rx="2" fill="#64748b"/>
  <!-- Car body -->
  <path d="M100 170h200c10 0 15-5 15-10v-20c0-5-3-8-7-10l-30-15c-5-3-10-5-18-5h-120c-8 0-13 2-18 5l-30 15c-4 2-7 5-7 10v20c0 5 5 10 15 10z" fill="#3B82F6"/>
  <!-- Car roof/windows -->
  <path d="M145 115l-15 25h140l-15-25c-3-5-8-7-15-7h-80c-7 0-12 2-15 7z" fill="#60a5fa" opacity="0.5"/>
  <line x1="200" y1="108" x2="200" y2="140" stroke="#1e293b" stroke-width="2" opacity="0.3"/>
  <!-- Wheels -->
  <circle cx="150" cy="175" r="22" fill="#1e293b"/>
  <circle cx="150" cy="175" r="14" fill="#475569"/>
  <circle cx="150" cy="175" r="5" fill="#94a3b8"/>
  <circle cx="250" cy="175" r="22" fill="#1e293b"/>
  <circle cx="250" cy="175" r="14" fill="#475569"/>
  <circle cx="250" cy="175" r="5" fill="#94a3b8"/>
  <!-- Headlights -->
  <rect x="295" y="142" width="18" height="10" rx="3" fill="#fbbf24" opacity="0.9"/>
  <rect x="87" y="142" width="18" height="10" rx="3" fill="#ef4444" opacity="0.7"/>
  <!-- Camera icon hint -->
  <circle cx="200" cy="85" r="16" fill="rgba(255,255,255,0.1)" stroke="rgba(255,255,255,0.2)" stroke-width="1.5"/>
  <path d="M193 85a7 7 0 1 1 14 0 7 7 0 0 1-14 0z" stroke="rgba(255,255,255,0.3)" stroke-width="1.5" fill="none"/>
  <rect x="192" y="78" width="16" height="2" rx="1" fill="rgba(255,255,255,0.2)"/>
</svg>
